<?xml version="1.0" encoding="UTF-8" standalone="no"?>
<svg xmlns="http://www.w3.org/2000/svg" xmlns:xlink="http://www.w3.org/1999/xlink" version="1.1" width="15" height="15" viewBox="760.5 388 15 15"><g id="document" fill-opacity="0" fill="#ffffff" fill-rule="nonzero" font-family="none" font-weight="none" font-size="none"><rect x="35490" y="18106.66667" transform="scale(0.02143,0.02143)" width="700" height="700" id="Shape-1-1"/></g><g fill="none" fill-rule="nonzero" stroke="none" stroke-width="none" stroke-linecap="none" stroke-linejoin="none" stroke-miterlimit="10" font-family="none" font-weight="none" font-size="none"><g id="stage"><g id="layer1-1"><g id="Group-1"><g id="Group-1-1" fill="#ffffff" stroke="none" stroke-width="1" stroke-linecap="butt" stroke-linejoin="miter" visibility="hidden"><rect x="35490.59729" y="18106.9812" transform="scale(0.02143,0.02143)" width="700" height="700" id="Shape-1"/></g><g id="Group-1-2"><g id="Group-1-3"><g id="Group-1-4"><g id="Group-1-5"><g id="Group-1-6"><path d="M765.79481,390.2808l-0.48937,3.69641c-0.07164,0.54102 0.87181,0.79371 0.85639,1.34414l-0.12235,4.36848c-0.01878,0.6716 0.48937,0.67207 0.48937,0.67207c0,0 0.50815,-0.00047 0.48937,-0.67207l-0.12235,-4.36848c-0.01536,-0.54949 0.84826,-0.79358 0.85639,-1.34414l-0.48937,-3.69641h-0.24467l0.12236,2.68829l-0.36702,0.33604l-0.12236,-3.02433h-0.24466l-0.12235,3.02433l-0.36702,-0.33604l0.12235,-2.68829zM769.95438,390.2808c-0.36037,0 -0.9612,0.44014 -1.20143,1.09998c-0.20021,0.49491 -0.26665,1.60055 -0.26665,2.26039v1.68018c0,0.54989 0.53386,0.67208 0.73404,0.67208l-0.24467,3.6964c-0.04429,0.66932 0.48937,0.67207 0.48937,0.67207c0,0 0.48937,0 0.48937,-0.67207z" id="CompoundPath-1" fill="#000000" stroke-width="NaN" stroke-linejoin="none"/><path d="M766.01188,390.28765c-0.00022,-0.22432 0.07219,-0.44843 0.21653,-0.63513c0.28012,-0.36232 0.76479,-0.4979 1.19225,-0.3335c0.42746,0.1644 0.69639,0.5898 0.66154,1.04645l0.28348,3.01319c0.30838,0.49751 0.16216,1.15029 -0.32897,1.46873l-0.53379,0.48474l-0.01078,0.83981l-0.02973,3.02635c0.26361,0.0041 0.49906,0.1659 0.59737,0.41053c0.09831,0.24463 0.04032,0.52435 -0.14714,0.70973c-0.18746,0.18538 -0.46783,0.24025 -0.71134,0.13921l-1.48176,-0.32446l-0.00414,-1.13537l0.19907,-3.01994l-0.01513,-0.87094l-0.66547,-0.76318l0.05056,-1.07992l0.51038,-2.98312l-0.28347,3.01317l-0.01142,0.90034l0.71407,0.69702l0.10595,0.13955l0.74526,-1.04283l-0.06097,-0.42915l-0.27721,-1.08667l-0.78268,0.97012l-0.24913,-1.15253l0.24739,-2.00439zM770.0838,390.87492l0.71785,6.04866v1.00811l-0.06051,1.00812l-0.11139,1.18339c0.24665,0.36848 0.23396,0.85251 -0.03168,1.20755c-0.26564,0.35504 -0.72639,0.50382 -1.14951,0.37119c-0.42312,-0.13263 -0.71649,-0.5178 -0.73193,-0.96095l-0.31777,-1.49965l0.3809,-3.00573l-0.4994,-0.36027l-0.09665,-1.18793l0.06052,-1.00811l0.09963,-1.02125l0.20192,-1.01119l0.51742,-0.90491c-0.20002,-0.15707 -0.26665,-0.43057 -0.16129,-0.66204c0.10536,-0.23147 0.35537,-0.36083 0.60518,-0.31315c0.24981,0.04768 0.43459,0.26004 0.44729,0.51404zM769.95438,390.2808l-0.79989,0.54062l-0.37307,0.88087l-0.07555,0.98402l0.0225,0.99298l0.06052,1.00811l0.09965,0.79106l0.45789,-0.5711l0.47853,-4.03244z" id="CompoundPath-1-1" fill="none" stroke-width="1" stroke-linejoin="miter"/></g></g><path d="M761.75,395.50014c0,-3.45178 2.79821,-6.25 6.25,-6.25c3.45179,0 6.25,2.79821 6.25,6.25c0,3.45178 -2.79821,6.25 -6.25,6.25c-3.45179,0 -6.25,-2.79821 -6.25,-6.25z" id="Path-1" fill-opacity="0" fill="#000000" stroke="#000000" stroke-width="0.5" stroke-linecap="round" stroke-linejoin="round"/></g></g></g></g></g></g></g></svg>