<?xml version="1.0" encoding="UTF-8" standalone="no"?>
<svg xmlns="http://www.w3.org/2000/svg" xmlns:xlink="http://www.w3.org/1999/xlink" version="1.1" width="15" height="15" viewBox="952.5 487 15 15"><g id="document" fill-opacity="0" fill="#ffffff" fill-rule="nonzero" font-family="none" font-weight="none" font-size="none"><rect x="44450" y="22726.66667" transform="scale(0.02143,0.02143)" width="700" height="700" id="Shape-1-1"/></g><g fill="none" fill-rule="nonzero" stroke="none" stroke-width="1" stroke-linecap="butt" stroke-linejoin="miter" stroke-miterlimit="10" font-family="none" font-weight="none" font-size="none"><g id="stage"><g id="layer1-1"><g id="Group-1"><g id="Group-1-1" fill="#ffffff" visibility="hidden"><rect x="44447.01353" y="22725.12832" transform="scale(0.02143,0.02143)" width="700" height="700" id="Shape-1"/></g><g id="Group-1-2" fill="#000000"><g id="Group-1-3"><g id="Group-1-4"><g id="Group-1-5"><path d="M959.46139,492.88152c-1.8483,1.8434 -3.6938,3.6894 -5.5394,5.5354c-0.0616,0.0616 -0.1231,0.124 -0.1779,0.1913c-0.5264,0.6473 -0.3873,1.6264 0.2974,2.102c0.6044,0.4197 1.3658,0.3442 1.9053,-0.1948c1.8534,-1.8519 3.7059,-3.7047 5.556,-5.5598c0.0919,-0.0921 -1.9594,-2.156 -2.0414,-2.0741z" id="Path-1"/></g><path d="M964.6056,496.40667c0.41872,-0.11476 2.18058,-2.06536 2.46746,-2.49796c0.15885,-0.29422 -0.24935,-0.53504 -0.42535,-0.51028c-1.84082,-1.8458 -3.52373,-3.53671 -5.36767,-5.37932c0.02888,-0.16095 0.06017,-0.49175 -0.46872,-0.40753c-0.60768,0.18303 -2.15126,1.67878 -2.47282,2.37872c-0.1227,0.36138 0.21669,0.45402 0.41355,0.42928c1.84964,1.85057 3.51063,3.70791 5.3641,5.55454c-0.03731,0.20237 0.05897,0.51701 0.48947,0.43253z" id="Path-1-1"/></g></g></g></g></g></g></g></svg>