<?xml version="1.0" encoding="UTF-8" standalone="no"?>
<svg xmlns="http://www.w3.org/2000/svg" xmlns:xlink="http://www.w3.org/1999/xlink" version="1.1" width="15" height="15" viewBox="952.5 487 15 15"><g id="document" fill-opacity="0" fill="#ffffff" fill-rule="nonzero" font-family="none" font-weight="none" font-size="none"><rect x="44450" y="22726.66667" transform="scale(0.02143,0.02143)" width="700" height="700" id="Shape-1-1"/></g><g fill="none" fill-rule="nonzero" stroke="none" stroke-width="1" stroke-linecap="butt" stroke-linejoin="miter" stroke-miterlimit="10" font-family="none" font-weight="none" font-size="none"><g id="stage"><g id="Layer2-1"><g id="Group-1"><g id="Group-1-1" fill="#ffffff" visibility="hidden"><rect x="44666.58638" y="23097.90173" transform="scale(0.02143,0.02143)" width="700" height="700" id="Shape-1" visibility="hidden"/></g><g id="Group-1-2" fill="#000000"><g id="Group-1-3"><g id="Group-1-4"><g id="Group-1-5"><g id="Group-1-6"><g id="Group-1-7"><g id="Group-1-8"><path d="M962.35644,490.23671c0.00542,0.79739 -0.44245,1.5364 -1.17365,1.93658c-0.7312,0.40018 -1.63365,0.40018 -2.36485,0c-0.7312,-0.40018 -1.17908,-1.13919 -1.17365,-1.93658c-0.00542,-0.79739 0.44245,-1.5364 1.17365,-1.93658c0.7312,-0.40018 1.63365,-0.40018 2.36485,0c0.7312,0.40018 1.17908,1.13919 1.17365,1.93658z" id="Path-1"/><path d="M963.49542,496.00441c0.00805,0.88308 -0.65639,1.70151 -1.74114,2.1447c-1.08475,0.44318 -2.42355,0.44318 -3.5083,0c-1.08475,-0.44318 -1.74918,-1.26162 -1.74114,-2.1447c-0.00805,-0.88308 0.65639,-1.70151 1.74114,-2.1447c1.00535,-0.41074 3.26621,-0.0902 3.26621,-0.0902c0,0 0.16269,0.05776 0.24209,0.0902c1.08475,0.44318 1.74918,1.26162 1.74114,2.1447z" id="Path-1-1"/></g><path d="M956.50636,501l-0.00185,-4.99858h6.99098v1.54125v3.45733z" id="Path-1-2"/></g></g></g></g></g></g></g></g></g></g></svg>