<?xml version="1.0" encoding="UTF-8" standalone="no"?>
<svg xmlns="http://www.w3.org/2000/svg" xmlns:xlink="http://www.w3.org/1999/xlink" version="1.1" width="15" height="18.18665" viewBox="952.5 487 15 18.18665"><g id="document" fill-opacity="0" fill="#ffffff" fill-rule="nonzero" font-family="none" font-weight="none" font-size="none"><rect x="44450" y="22726.66667" transform="scale(0.02143,0.02143)" width="700" height="700" id="Shape-1-1"/></g><g fill="none" fill-rule="nonzero" stroke="none" stroke-width="none" stroke-linecap="none" stroke-linejoin="none" stroke-miterlimit="10" font-family="none" font-weight="none" font-size="none"><g id="stage"><g id="Layer2-1"><g id="Group-1"><g id="Group-1-1" fill="#ffffff" stroke="none" stroke-width="1" visibility="hidden"><rect x="44452.81237" y="22726.66679" transform="scale(0.02143,0.02143)" width="700" height="700" id="Shape-1"/></g><g id="Group-1-2"><g id="Group-1-3"><g id="Group-1-4"><g id="Group-1-5" fill="#000000" stroke="none" stroke-width="1"><g id="Group-1-6"><g id="Group-1-7"><g id="Group-1-8"><path d="M960.1622,490.23671c0.00542,0.79739 -0.44245,1.5364 -1.17365,1.93658c-0.7312,0.40018 -1.63366,0.40018 -2.36486,0c-0.7312,-0.40018 -1.17907,-1.13919 -1.17365,-1.93658c-0.00542,-0.79739 0.44245,-1.5364 1.17365,-1.93658c0.7312,-0.40018 1.63366,-0.40018 2.36486,0c0.7312,0.40018 1.17907,1.13919 1.17365,1.93658z" id="Path-1"/><path d="M961.30118,496.00441c0.00805,0.88308 -0.65639,1.70152 -1.74114,2.1447c-1.08475,0.44318 -2.42355,0.44318 -3.5083,0c-1.08475,-0.44318 -1.74918,-1.26162 -1.74113,-2.1447c-0.00805,-0.88308 0.65638,-1.70152 1.74113,-2.1447c1.08475,-0.44318 2.42355,-0.44318 3.5083,0c1.08475,0.44318 1.74919,1.26162 1.74114,2.1447z" id="Path-1-1"/></g><path d="M954.31212,501l-0.00185,-4.99858h6.99098v4.99858z" id="Path-1-2"/></g></g></g><g id="Group-1-9" fill-opacity="0" fill="#000000" stroke="#000000" stroke-width="0.7"><g id="Group-1-10"><g id="Group-1-11"><g id="Group-1-12"><path d="M964.65189,491.22435c0.00465,0.68604 -0.37973,1.32184 -1.00728,1.66614c-0.03868,0.02122 -0.07793,0.04114 -0.11766,0.05975c-0.60482,0.28324 -1.3231,0.26332 -1.91197,-0.05975c-0.62755,-0.34429 -1.01194,-0.9801 -1.00729,-1.66614c-0.00465,-0.68604 0.37974,-1.32183 1.00729,-1.66613c0.62755,-0.34429 1.40208,-0.34429 2.02963,0c0.62755,0.34429 1.01194,0.98009 1.00728,1.66613z" id="Path-1-3"/><path d="M959.3,500.64957c0.12944,-4.4524 0.00083,-0.01635 0.12975,-4.46296c-0.00691,-0.75976 0.56335,-1.4639 1.49433,-1.8452c0.93099,-0.38129 2.08001,-0.38129 3.01099,0c0.93099,0.38129 1.50123,1.08543 1.49433,1.8452c-0.00371,0.75991 -0.02079,3.58004 -0.04338,4.48587c-0.87066,0.00548 0.0956,-0.01198 -6.08602,-0.02291z" id="Path-1-4"/></g></g></g></g><g id="Group-1-13" fill="none" stroke="none" stroke-width="1" font-family="sans-serif" font-weight="normal" font-size="12" text-anchor="start"/></g></g></g></g><path d="M963.25328,505.18665" id="Path-1-5" fill="#bfbfbf" stroke="#323232" stroke-width="1" stroke-linecap="round" stroke-linejoin="round"/></g></g></g></svg>